<?xml version="1.0" encoding="UTF-8"?>
<svg width="382px" height="312px" viewBox="0 0 382 312" version="1.1" xmlns="http://www.w3.org/2000/svg" xmlns:xlink="http://www.w3.org/1999/xlink">
    <title>Pengu - Hero Penguin @ Penguin Academy</title>
    <defs>
        <polygon id="path-1" points="0 0.0792475248 179.564544 0.0792475248 179.564544 144.434403 0 144.434403"></polygon>
        <polygon id="path-3" points="0.129326249 0.362162437 198.568841 0.362162437 198.568841 281.693554 0.129326249 281.693554"></polygon>
    </defs>
    <g id="Design-V3-for-export" stroke="none" stroke-width="1" fill="none" fill-rule="evenodd">
        <g id="01-Home" transform="translate(-209.000000, -324.000000)">
            <g id="home/hero" transform="translate(209.000000, 324.000000)">
                <g id="Group-3" transform="translate(0.000000, 101.000000)">
                    <mask id="mask-2" fill="white">
                        <use xlink:href="#path-1"></use>
                    </mask>
                    <g id="Clip-2"></g>
                    <path d="M79.360704,34.6351881 C79.360704,34.6351881 35.299584,45.7169208 24.819264,50.428703 C14.338944,55.1404851 0.039744,51.8370693 0.039744,51.8370693 C0.039744,51.8370693 -3.489696,96.0907822 55.737504,106.763356 C55.737504,106.763356 93.088224,103.650881 122.773824,127.98504 C152.462304,152.317762 160.755264,142.459198 160.755264,142.459198 L179.564544,0.0792475248 L138.466944,5.74716832 L79.360704,34.6351881 Z" id="Fill-1" fill="#CD1E4F" mask="url(#mask-2)"></path>
                </g>
                <polygon id="Fill-4" fill="#FCBF10" points="133 299.963629 141.910667 294.460725 139.681566 312 153.084837 296.696192 153.749984 308.414818 177 271.91063 142.310614 266"></polygon>
                <polygon id="Fill-5" fill="#FCBF10" points="230.162833 270.514258 221 303.172909 233.647873 294.925352 233.881539 312 244.722776 295.385232 248.621005 302.949457 270 262"></polygon>
                <path d="M172.286485,105 C172.286485,105 100.665774,114.833865 131.876026,188 C131.876026,188 164.813367,141.723408 188,131.33534 L172.286485,105 Z" id="Fill-6" fill="#2E2F5B"></path>
                <path d="M327.674757,109.092516 C327.674757,109.092516 354.117173,82.7808219 367.729667,54 C367.729667,54 399.981617,78.6651237 367.513393,121.53262 C335.045168,164.398664 310,144.286677 310,144.286677 L327.674757,109.092516 Z" id="Fill-8" fill="#292B4F"></path>
                <g id="Group-41" transform="translate(139.000000, 0.000000)">
                    <g id="Group-12">
                        <mask id="mask-4" fill="white">
                            <use xlink:href="#path-3"></use>
                        </mask>
                        <g id="Clip-11"></g>
                        <path d="M123.071545,275.743179 C141.009914,268.464143 140.010801,246.324996 140.010801,246.324996 C140.010801,246.324996 153.942724,204.461595 171.194559,172.52259 C186.064223,144.992519 198.568841,93.5282345 198.568841,93.5282345 C197.613974,74.3107218 193.403425,52.2188132 179.153212,25.8697066 C179.153212,25.8697066 167.035393,-2.40616142 120.114169,0.582752284 C73.1915186,3.57309746 52.0531321,19.7659096 39.8097101,55.6772497 C27.5634335,91.5871584 29.8785222,124.403656 29.8785222,124.403656 C29.8785222,124.403656 27.2608449,185.952661 8.07643883,232.965067 C8.07643883,232.965067 -2.37428812,244.565717 0.692990248,272.227483 C0.692990248,272.227483 13.1562172,286.623798 29.4688856,279.908762 C33.8264477,278.116559 37.8300381,276.328651 41.6594973,274.698204 C43.8875204,273.743412 46.0570239,272.844448 48.1951268,272.047118 C56.1494973,269.038163 61.2335576,266.464377 70.0942668,267.43062 C85.4606321,269.125483 105.147449,274.404752 105.147449,274.404752 C105.147449,274.404752 105.167432,274.410478 105.193123,274.430519 C105.23166,274.443402 105.287325,274.472031 105.371536,274.510681 C105.371536,274.510681 112.870597,277.803067 123.071545,275.743179" id="Fill-10" fill="#2E2F5B" mask="url(#mask-4)"></path>
                    </g>
                    <path d="M198.568128,93.5289503 C198.568128,93.5289503 186.063509,144.991803 171.193846,172.523306 C153.942011,204.462311 140.723739,245.74024 140.723739,245.74024 C140.723739,245.74024 141.010628,268.464859 123.070832,275.743894 C112.869883,277.802351 105.370823,274.511397 105.370823,274.511397 C105.288039,274.472747 105.230947,274.442686 105.19241,274.431235 C105.168145,274.411194 105.148163,274.405468 105.148163,274.405468 C105.148163,274.405468 85.4599184,269.126199 70.0949805,267.431336 C61.2342713,266.465092 56.1487837,269.037448 48.1958404,272.047834 C46.0563103,272.845163 43.888234,273.744128 41.660211,274.69892 C37.8307518,276.329366 33.825734,278.117275 29.468172,279.908047 C29.468172,279.908047 34.1968333,250.764707 51.3102199,224.865082 C78.8957429,183.11763 81.9344752,128.088981 81.9344752,128.088981 C81.9344752,128.088981 81.7945993,126.122138 82.649555,123.69293 C86.8543954,111.731549 101.485699,77.0398234 120.24905,79.9757726 C142.82045,83.5086457 153.376798,96.9086558 171.573509,88.9353563 C189.768793,80.9606254 198.568128,93.5289503 198.568128,93.5289503" id="Fill-13" fill="#FFFFFF"></path>
                    <g id="Group-18" transform="translate(28.723404, 147.441624)">
                        <path d="M153.804385,0.0609807107 C150.630059,9.43855431 146.4295,17.7511127 142.471583,25.0816812 C125.219748,57.0206863 112.00005,98.2971838 112.00005,98.2971838 C112.00005,98.2971838 112.286938,121.021803 94.3485691,128.300839 C84.1461933,130.360727 76.647133,127.069773 76.647133,127.069773 C76.5643493,127.031123 76.5086844,127.001062 76.4687199,126.98961 C76.4444557,126.96957 76.4244734,126.963844 76.4244734,126.963844 C76.4244734,126.963844 56.737656,121.684575 41.3712908,119.989712 C32.5105816,119.022037 27.4265213,121.595823 19.4721507,124.606209 C17.3340479,125.403539 15.1645443,126.301072 12.9365213,127.255864 C9.10706206,128.887742 5.10204433,130.675651 0.745909574,132.466422" id="Fill-15" fill="#FFFFFF"></path>
                        <path d="M153.804385,0.0609807107 C150.630059,9.43855431 146.4295,17.7511127 142.471583,25.0816812 C125.219748,57.0206863 112.00005,98.2971838 112.00005,98.2971838 C112.00005,98.2971838 112.286938,121.021803 94.3485691,128.300839 C84.1461933,130.360727 76.647133,127.069773 76.647133,127.069773 C76.5643493,127.031123 76.5086844,127.001062 76.4687199,126.98961 C76.4444557,126.96957 76.4244734,126.963844 76.4244734,126.963844 C76.4244734,126.963844 56.737656,121.684575 41.3712908,119.989712 C32.5105816,119.022037 27.4265213,121.595823 19.4721507,124.606209 C17.3340479,125.403539 15.1645443,126.301072 12.9365213,127.255864 C9.10706206,128.887742 5.10204433,130.675651 0.745909574,132.466422" id="Stroke-17" stroke="#E6E5E7"></path>
                    </g>
                    <path d="M198.027322,144.272059 C198.030176,144.297825 198.02304,144.320729 198.018758,144.332181" id="Fill-19" fill="#2E2F5B"></path>
                    <path d="M134.96385,39.8410173 C132.781501,47.0026721 125.465136,51.108134 118.622636,49.0095959 C111.781563,46.9110579 108.003487,39.4058497 110.187263,32.2441949 C112.369613,25.0839716 119.685978,20.9785096 126.527051,23.0770477 C133.369551,25.1741543 137.146199,32.6807939 134.96385,39.8410173" id="Fill-21" fill="#FFFFFF"></path>
                    <path d="M131.667489,33.1988437 C130.742596,36.2378589 127.638207,37.9785289 124.735069,37.0881533 C121.831931,36.1992091 120.229067,33.0141838 121.155388,29.9766 C122.081709,26.9375848 125.186098,25.1954832 128.089236,26.0858589 C130.990947,26.974803 132.59381,30.1598284 131.667489,33.1988437" id="Fill-23" fill="#000000"></path>
                    <path d="M136.670051,27.7420721 C135.54248,25.234133 133.78404,22.9981736 131.33193,21.4335746 C124.576496,17.1234122 115.44888,19.3865695 110.942879,26.489534 C110.942879,26.489534 129.469297,24.1462142 136.96693,28.7741641 C136.96693,28.7741641 137.138207,28.7798893 136.670051,27.7420721" id="Fill-25" fill="#2E2F5B"></path>
                    <path d="M172.560348,33.6314345 C170.794771,39.4260335 164.87431,42.7484802 159.337794,41.0507543 C153.801278,39.3530284 150.745418,33.2792924 152.510995,27.4846934 C154.277998,21.6900944 160.198459,18.3676477 165.734975,20.0653736 C171.271491,21.7630995 174.325924,27.8368355 172.560348,33.6314345" id="Fill-27" fill="#FFFFFF"></path>
                    <path d="M168.395472,27.3449817 C167.66041,29.7570122 165.196881,31.1398142 162.891784,30.432667 C160.586686,29.7269513 159.314957,27.1975401 160.05002,24.7855096 C160.785082,22.3734792 163.250037,20.9906772 165.555135,21.6978244 C167.858805,22.4035401 169.131961,24.9315198 168.395472,27.3449817" id="Fill-29" fill="#000000"></path>
                    <path d="M171.210973,22.1216832 C169.867879,20.2936934 168.068048,18.8164142 165.831461,18.033399 C159.67264,15.8704447 152.771621,19.5865462 150.417995,26.3316426 C150.417995,26.3316426 164.819502,20.6372467 171.629174,22.9075614 C171.629174,22.9075614 171.767622,22.878932 171.210973,22.1216832" id="Fill-31" fill="#2E2F5B"></path>
                    <path d="M143.051103,35.8603797 L199.849277,25.4421259 L170.739392,53.612065 C170.739392,53.612065 167.189684,55.5130599 159.024073,55.8465929 C150.861316,56.1829888 142.627193,53.9570497 143.051103,35.8603797" id="Fill-33" fill="#FCBF10"></path>
                    <path d="M144.620567,46.1051391 C145.702465,46.211068 146.977048,46.1681239 148.173129,46.0679208 C149.387766,45.9763066 150.602402,45.8002355 151.814184,45.5969665 C154.234894,45.1718193 156.634193,44.5720325 159.007801,43.8720426 C163.746454,42.4405706 168.362358,40.5596162 172.858369,38.4353117 C175.100665,37.3631391 177.335824,36.2451594 179.565275,35.1214538 L186.27789,31.7889868 L193.017624,28.5152102 C195.278475,27.4559208 197.520771,26.3422355 199.848706,25.4418396 C197.549317,26.4123777 195.344131,27.5919107 193.118963,28.7184792 L186.483422,32.1940934 L179.877855,35.725535 C177.685514,36.9179513 175.487465,38.1003472 173.253732,39.2440934 C168.78484,41.5072508 164.178927,43.5370782 159.40031,45.1274437 C157.00672,45.904733 154.574592,46.5861137 152.091082,47.0914234 C150.847899,47.3376365 149.596152,47.5537888 148.325851,47.6854843 C147.038422,47.8214741 145.81094,47.9202457 144.405044,47.8200426 L144.620567,46.1051391 Z" id="Fill-35" fill="#C9952C"></path>
                    <path d="M133.67742,27.3953695 C131.212465,26.9716538 128.711826,26.7726792 126.216897,26.7011056 C123.724823,26.5994711 121.232748,26.6424152 118.749238,26.7755421 C117.507482,26.8800396 116.268582,26.9559076 115.033963,27.1305472 C113.799344,27.2622426 112.56758,27.3796234 111.325824,27.4411766 C110.702092,27.451197 110.082642,27.4869838 109.460337,27.524202 C108.836605,27.5399482 108.2143,27.5771665 107.584858,27.5714406 C106.330257,27.6000701 105.071374,27.6315624 103.778236,27.524202 L103.738271,27.3123442 C106.111879,26.2988619 108.59539,25.6818975 111.107447,25.2911056 C113.622358,24.858801 116.188652,25.0148315 118.722119,25.0463239 C121.262722,25.1293492 123.794761,25.3039888 126.308245,25.6232071 C128.81602,25.989664 131.316658,26.4176741 133.734512,27.1863746 L133.67742,27.3953695 Z" id="Fill-37" fill="#1A1D39"></path>
                    <path d="M151.948066,25.3102873 C153.760743,24.7677594 155.581984,24.2595868 157.411789,23.7728863 C159.245876,23.3076579 161.089954,22.8767848 162.942596,22.4759726 C164.796665,22.0808863 166.652161,21.6256782 168.560468,21.4968457 C170.454502,21.3680132 172.407055,21.3350893 174.286816,21.8232213 L174.278252,21.9534853 C172.385645,22.1810893 170.557268,22.4888558 168.706053,22.7851706 C166.86483,23.0986629 164.986496,23.2146122 163.125291,23.4966122 C161.262658,23.7671604 159.404307,24.069201 157.54881,24.4070284 C155.687605,24.7233838 153.829254,25.0612112 151.979466,25.4362569 L151.948066,25.3102873 Z" id="Fill-39" fill="#1A1D39"></path>
                </g>
                <path d="M202,104.848901 C202,104.848901 185.448371,81.6726744 154.299056,86.7187954 C123.14974,91.7663652 80.9232885,134.096989 46,143.302574 C46,143.302574 74.4394274,149.6555 113.853758,124.01344 C153.269529,98.3699309 202,104.848901 202,104.848901" id="Fill-42" fill="#ED2551"></path>
            </g>
        </g>
    </g>
</svg>